<?xml version="1.0" encoding="UTF-8"?>
<svg width="286px" height="66px" viewBox="0 0 286 66" version="1.1" xmlns="http://www.w3.org/2000/svg" xmlns:xlink="http://www.w3.org/1999/xlink">
    <!-- Generator: Sketch 54 (76480) - https://sketchapp.com -->
    <title>middle-man-full-logo</title>
    <desc>Created with Sketch.</desc>
    <defs>
        <radialGradient cx="0%" cy="0%" fx="0%" fy="0%" r="197.769464%" gradientTransform="translate(0.000000,0.000000),scale(0.586082,1.000000),rotate(30.373795),translate(-0.000000,-0.000000)" id="radialGradient-1">
            <stop stop-color="#43E695" offset="0%"></stop>
            <stop stop-color="#3BB2B8" offset="100%"></stop>
        </radialGradient>
    </defs>
    <g id="Logo-Designs-White" stroke="none" stroke-width="1" fill="none" fill-rule="evenodd">
        <g id="middle-man-full-logo">
            <path d="M0,38.837 L9.231,38.837 L9.231,42.05 C11.7470126,39.6359879 14.5689844,38.429 17.697,38.429 C21.5730194,38.429 24.5309898,40.0609837 26.571,43.325 C28.6450104,40.0269835 31.6029808,38.378 35.445,38.378 C36.6690061,38.378 37.8249946,38.5564982 38.913,38.9135 C40.0010054,39.2705018 40.9359961,39.8314962 41.718,40.5965 C42.5000039,41.3615038 43.1204977,42.3559939 43.5795,43.58 C44.0385023,44.8040061 44.268,46.2829913 44.268,48.017 L44.268,65 L35.037,65 L35.037,52.097 C35.037,50.7709934 34.9435009,49.6830042 34.7565,48.833 C34.5694991,47.9829958 34.2975018,47.3200024 33.9405,46.844 C33.5834982,46.3679976 33.1670024,46.0450009 32.691,45.875 C32.2149976,45.7049991 31.7050027,45.62 31.161,45.62 C28.2029852,45.62 26.724,47.7789784 26.724,52.097 L26.724,65 L17.493,65 L17.493,52.097 C17.493,50.7709934 17.4080009,49.6745043 17.238,48.8075 C17.0679991,47.9404957 16.8215016,47.2520026 16.4985,46.742 C16.1754984,46.2319974 15.7590025,45.8835009 15.249,45.6965 C14.7389974,45.5094991 14.1440034,45.416 13.464,45.416 C12.8859971,45.416 12.3420025,45.5009991 11.832,45.671 C11.3219974,45.8410009 10.871502,46.1724975 10.4805,46.6655 C10.089498,47.1585025 9.7835011,47.8384957 9.5625,48.7055 C9.34149889,49.5725043 9.231,50.702993 9.231,52.097 L9.231,65 L0,65 L0,38.837 Z M56.823,38.837 L56.823,65 L47.592,65 L47.592,38.837 L56.823,38.837 Z M46.98,28.79 C46.98,28.0759964 47.1159986,27.4045031 47.388,26.7755 C47.6600014,26.1464969 48.0339976,25.5940024 48.51,25.118 C48.9860024,24.6419976 49.5384969,24.2680014 50.1675,23.996 C50.7965031,23.7239986 51.4679964,23.588 52.182,23.588 C52.8960036,23.588 53.5674969,23.7239986 54.1965,23.996 C54.8255031,24.2680014 55.3779976,24.6419976 55.854,25.118 C56.3300024,25.5940024 56.7039986,26.1464969 56.976,26.7755 C57.2480014,27.4045031 57.384,28.0759964 57.384,28.79 C57.384,29.5040036 57.2480014,30.1754969 56.976,30.8045 C56.7039986,31.4335031 56.3300024,31.9859976 55.854,32.462 C55.3779976,32.9380024 54.8255031,33.3119986 54.1965,33.584 C53.5674969,33.8560014 52.8960036,33.992 52.182,33.992 C51.4679964,33.992 50.7965031,33.8560014 50.1675,33.584 C49.5384969,33.3119986 48.9860024,32.9380024 48.51,32.462 C48.0339976,31.9859976 47.6600014,31.4335031 47.388,30.8045 C47.1159986,30.1754969 46.98,29.5040036 46.98,28.79 Z M68.715,51.842 C68.715,52.6920042 68.8679985,53.4824963 69.174,54.2135 C69.4800015,54.9445037 69.8964974,55.5819973 70.4235,56.126 C70.9505026,56.6700027 71.5794963,57.0949985 72.3105,57.401 C73.0415037,57.7070015 73.8319958,57.86 74.682,57.86 C75.4980041,57.86 76.2714963,57.7070015 77.0025,57.401 C77.7335037,57.0949985 78.3624974,56.6700027 78.8895,56.126 C79.4165026,55.5819973 79.8414984,54.9530036 80.1645,54.239 C80.4875016,53.5249964 80.649,52.7600041 80.649,51.944 C80.649,51.1279959 80.4875016,50.3545037 80.1645,49.6235 C79.8414984,48.8924963 79.4165026,48.2550027 78.8895,47.711 C78.3624974,47.1669973 77.7335037,46.7420015 77.0025,46.436 C76.2714963,46.1299985 75.4980041,45.977 74.682,45.977 C73.8659959,45.977 73.0925037,46.1299985 72.3615,46.436 C71.6304963,46.7420015 71.0015026,47.1669973 70.4745,47.711 C69.9474974,48.2550027 69.5225016,48.8754965 69.1995,49.5725 C68.8764984,50.2695035 68.715,51.0259959 68.715,51.842 Z M80.343,22.67 L89.625,22.67 L89.625,65 L80.343,65 L80.343,62.093 C78.3709901,64.5750124 75.7020168,65.816 72.336,65.816 C70.4319905,65.816 68.681008,65.4590036 67.083,64.745 C65.484992,64.0309964 64.0910059,63.0450063 62.901,61.787 C61.710994,60.5289937 60.7845033,59.0500085 60.1215,57.35 C59.4584967,55.6499915 59.127,53.8140099 59.127,51.842 C59.127,49.9719907 59.4414969,48.1955084 60.0705,46.5125 C60.6995031,44.8294916 61.5919942,43.3590063 62.748,42.101 C63.9040058,40.8429937 65.2894919,39.8485037 66.9045,39.1175 C68.5195081,38.3864963 70.2959903,38.021 72.234,38.021 C75.4980163,38.021 78.2009893,39.1599886 80.343,41.438 L80.343,22.67 Z M101.466,51.842 C101.466,52.6920042 101.618998,53.4824963 101.925,54.2135 C102.231002,54.9445037 102.647497,55.5819973 103.1745,56.126 C103.701503,56.6700027 104.330496,57.0949985 105.0615,57.401 C105.792504,57.7070015 106.582996,57.86 107.433,57.86 C108.249004,57.86 109.022496,57.7070015 109.7535,57.401 C110.484504,57.0949985 111.113497,56.6700027 111.6405,56.126 C112.167503,55.5819973 112.592498,54.9530036 112.9155,54.239 C113.238502,53.5249964 113.4,52.7600041 113.4,51.944 C113.4,51.1279959 113.238502,50.3545037 112.9155,49.6235 C112.592498,48.8924963 112.167503,48.2550027 111.6405,47.711 C111.113497,47.1669973 110.484504,46.7420015 109.7535,46.436 C109.022496,46.1299985 108.249004,45.977 107.433,45.977 C106.616996,45.977 105.843504,46.1299985 105.1125,46.436 C104.381496,46.7420015 103.752503,47.1669973 103.2255,47.711 C102.698497,48.2550027 102.273502,48.8754965 101.9505,49.5725 C101.627498,50.2695035 101.466,51.0259959 101.466,51.842 Z M113.094,22.67 L122.376,22.67 L122.376,65 L113.094,65 L113.094,62.093 C111.12199,64.5750124 108.453017,65.816 105.087,65.816 C103.18299,65.816 101.432008,65.4590036 99.834,64.745 C98.235992,64.0309964 96.8420059,63.0450063 95.652,61.787 C94.461994,60.5289937 93.5355033,59.0500085 92.8725,57.35 C92.2094967,55.6499915 91.878,53.8140099 91.878,51.842 C91.878,49.9719907 92.1924969,48.1955084 92.8215,46.5125 C93.4505031,44.8294916 94.3429942,43.3590063 95.499,42.101 C96.6550058,40.8429937 98.0404919,39.8485037 99.6555,39.1175 C101.270508,38.3864963 103.04699,38.021 104.985,38.021 C108.249016,38.021 110.951989,39.1599886 113.094,41.438 L113.094,22.67 Z M134.88,22.67 L134.88,65 L125.649,65 L125.649,22.67 L134.88,22.67 Z M157.329,48.119 C157.022998,46.8269935 156.394005,45.7900039 155.442,45.008 C154.489995,44.2259961 153.334007,43.835 151.974,43.835 C150.545993,43.835 149.381505,44.2089963 148.4805,44.957 C147.579495,45.7050037 147.010001,46.7589932 146.772,48.119 L157.329,48.119 Z M146.517,53.474 C146.517,57.4520199 148.386981,59.441 152.127,59.441 C154.13301,59.441 155.645995,58.6250082 156.666,56.993 L165.591,56.993 C163.788991,62.9770299 159.284036,65.969 152.076,65.969 C149.865989,65.969 147.843009,65.6375033 146.007,64.9745 C144.170991,64.3114967 142.598507,63.3680061 141.2895,62.144 C139.980493,60.9199939 138.969004,59.4580085 138.255,57.758 C137.540996,56.0579915 137.184,54.1540105 137.184,52.046 C137.184,49.8699891 137.523997,47.9065088 138.204,46.1555 C138.884003,44.4044912 139.852994,42.9170061 141.111,41.693 C142.369006,40.4689939 143.890491,39.5255033 145.6755,38.8625 C147.460509,38.1994967 149.474989,37.868 151.719,37.868 C153.929011,37.868 155.917991,38.1994967 157.686,38.8625 C159.454009,39.5255033 160.949994,40.4859937 162.174,41.744 C163.398006,43.0020063 164.332997,44.5404909 164.979,46.3595 C165.625003,48.1785091 165.948,50.2269886 165.948,52.505 L165.948,53.474 L146.517,53.474 Z M234.129,51.842 C234.129,52.6920042 234.281998,53.4824963 234.588,54.2135 C234.894002,54.9445037 235.310497,55.5819973 235.8375,56.126 C236.364503,56.6700027 236.993496,57.0949985 237.7245,57.401 C238.455504,57.7070015 239.245996,57.86 240.096,57.86 C240.912004,57.86 241.685496,57.7070015 242.4165,57.401 C243.147504,57.0949985 243.776497,56.6700027 244.3035,56.126 C244.830503,55.5819973 245.255498,54.9530036 245.5785,54.239 C245.901502,53.5249964 246.063,52.7600041 246.063,51.944 C246.063,51.1279959 245.901502,50.3545037 245.5785,49.6235 C245.255498,48.8924963 244.830503,48.2550027 244.3035,47.711 C243.776497,47.1669973 243.147504,46.7420015 242.4165,46.436 C241.685496,46.1299985 240.912004,45.977 240.096,45.977 C239.245996,45.977 238.455504,46.1299985 237.7245,46.436 C236.993496,46.7420015 236.364503,47.1669973 235.8375,47.711 C235.310497,48.2550027 234.894002,48.8754965 234.588,49.5725 C234.281998,50.2695035 234.129,51.0259959 234.129,51.842 Z M245.757,38.837 L255.039,38.837 L255.039,65 L245.757,65 L245.757,62.093 C243.78499,64.5750124 241.116017,65.816 237.75,65.816 C235.84599,65.816 234.095008,65.4675035 232.497,64.7705 C230.898992,64.0734965 229.505006,63.0960063 228.315,61.838 C227.124994,60.5799937 226.198503,59.1010085 225.5355,57.401 C224.872497,55.7009915 224.541,53.84801 224.541,51.842 C224.541,49.9719907 224.863997,48.1955084 225.51,46.5125 C226.156003,44.8294916 227.056994,43.3590063 228.213,42.101 C229.369006,40.8429937 230.745992,39.8485037 232.344,39.1175 C233.942008,38.3864963 235.70999,38.021 237.648,38.021 C240.912016,38.021 243.614989,39.1599886 245.757,41.438 L245.757,38.837 Z M258.312,38.837 L267.543,38.837 L267.543,42.152 C268.801006,40.6219923 270.075994,39.5935026 271.368,39.0665 C272.660006,38.5394974 274.172991,38.276 275.907,38.276 C277.743009,38.276 279.315493,38.573497 280.6245,39.1685 C281.933507,39.763503 283.046995,40.6049946 283.965,41.693 C284.713004,42.5770044 285.222999,43.5629946 285.495,44.651 C285.767001,45.7390054 285.903,46.979993 285.903,48.374 L285.903,65 L276.672,65 L276.672,51.791 C276.672,50.4989935 276.578501,49.453504 276.3915,48.6545 C276.204499,47.855496 275.873002,47.2180024 275.397,46.742 C274.988998,46.333998 274.530003,46.0450009 274.02,45.875 C273.509997,45.7049991 272.966003,45.62 272.388,45.62 C270.823992,45.62 269.625504,46.0874953 268.7925,47.0225 C267.959496,47.9575047 267.543,49.2919913 267.543,51.026 L267.543,65 L258.312,65 L258.312,38.837 Z" id="middlean" fill="#636363" fill-rule="nonzero"></path>
            <path d="M6.438,24.95 L6.438,34 L1.913,34 L1.913,24.95 L0.413,24.95 L0.413,21.175 L1.913,21.175 L1.913,17.325 L6.438,17.325 L6.438,21.175 L9.013,21.175 L9.013,24.95 L6.438,24.95 Z M10.288,13.25 L14.813,13.25 L14.813,22.8 C15.4296697,22.0499962 16.0546635,21.5458346 16.688,21.2875 C17.3213365,21.0291654 18.0629957,20.9 18.913,20.9 C20.5296747,20.9 21.7504959,21.3458289 22.5755,22.2375 C23.4005041,23.1291711 23.813,24.3333258 23.813,25.85 L23.813,34 L19.288,34 L19.288,27.525 C19.288,26.8749968 19.2380005,26.350002 19.138,25.95 C19.0379995,25.549998 18.8713345,25.2416678 18.638,25.025 C18.237998,24.6749983 17.7546695,24.5 17.188,24.5 C16.4213295,24.5 15.8338354,24.7291644 15.4255,25.1875 C15.0171646,25.6458356 14.813,26.2999957 14.813,27.15 L14.813,34 L10.288,34 L10.288,13.25 Z M35.263,25.725 C35.1129992,25.0916635 34.804669,24.5833353 34.338,24.2 C33.871331,23.8166648 33.30467,23.625 32.638,23.625 C31.9379965,23.625 31.3671689,23.8083315 30.9255,24.175 C30.4838311,24.5416685 30.2046672,25.05833 30.088,25.725 L35.263,25.725 Z M29.963,28.35 C29.963,30.3000098 30.8796575,31.275 32.713,31.275 C33.6963382,31.275 34.4379975,30.875004 34.938,30.075 L39.313,30.075 C38.4296622,33.008348 36.221351,34.475 32.688,34.475 C31.6046612,34.475 30.6130045,34.3125016 29.713,33.9875 C28.8129955,33.6624984 28.0421699,33.200003 27.4005,32.6 C26.7588301,31.999997 26.2630017,31.2833375 25.913,30.45 C25.5629982,29.6166625 25.388,28.6833385 25.388,27.65 C25.388,26.583328 25.554665,25.6208376 25.888,24.7625 C26.221335,23.9041624 26.6963302,23.175003 27.313,22.575 C27.9296697,21.974997 28.6754956,21.5125016 29.5505,21.1875 C30.4255044,20.8624984 31.4129945,20.7 32.513,20.7 C33.5963387,20.7 34.571329,20.8624984 35.438,21.1875 C36.304671,21.5125016 37.037997,21.9833302 37.638,22.6 C38.238003,23.2166697 38.6963317,23.9708289 39.013,24.8625 C39.3296682,25.7541711 39.488,26.7583278 39.488,27.875 L39.488,28.35 L29.963,28.35 Z" id="the" fill="#636363" fill-rule="nonzero"></path>
            <g id="middle-man" transform="translate(163.569296, 0.000000)">
                <path d="M29.7379722,38.9320222 C30.2443586,41.8578598 30.6505249,44.1460095 30.9564781,45.7965116 C31.3234877,44.03662 31.7300547,41.7678155 32.1761905,38.9900335 C39.4372322,38.7757182 45.8347425,35.1212519 49.7950897,29.6002664 C50.2377823,29.9459319 50.6227294,30.3808151 50.9208149,30.8971143 L61.4208149,49.0836478 C62.6634556,51.2359646 61.9260174,53.9881214 59.7737006,55.2307621 C57.6213838,56.4734028 54.869227,55.7359646 53.6265863,53.5836478 L48.9249545,45.4401826 L48.9249545,65 L39.089578,65 L39.089578,40.6686047 C37.2485269,48.706735 35.7143763,53.4838667 34.4871261,55 C32.6462508,57.2741999 31.452011,59.6665351 27.4888774,55 C24.8467884,51.8889766 23.2706063,47.2862634 22.760331,41.1918605 L22.760331,65 L12.9249545,65 L12.9249545,45.7425 L8.39786571,53.5836478 C7.15522502,55.7359646 4.40306819,56.4734028 2.25075139,55.2307621 C0.098434583,53.9881214 -0.639003616,51.2359646 0.603637072,49.0836478 L11.1036371,30.8971143 C11.5443379,30.133798 12.1748992,29.548439 12.9012306,29.1662488 C16.6412252,34.6473408 22.7408811,38.3900073 29.7379722,38.9320222 Z" id="Combined-Shape" fill="url(#radialGradient-1)"></path>
                <circle id="Oval" fill="" cx="31.5" cy="16.5" r="16.5"></circle>
            </g>
        </g>
    </g>
</svg>