<svg xmlns="http://www.w3.org/2000/svg" xmlns:xlink="http://www.w3.org/1999/xlink" width="1009" height="839">
  <defs>
    <radialGradient id="a" cx="0%" cy="0%" r="203.844%" fx="0%" fy="0%" gradientTransform="scale(.56297 1) rotate(29.378)">
      <stop offset="0%" stop-color="#43E695"/>
      <stop offset="100%" stop-color="#3BB2B8"/>
    </radialGradient>
    <radialGradient id="c" cx="0%" cy="0%" r="197.094%" fx="0%" fy="0%" gradientTransform="scale(.58879 1) rotate(30.489)">
      <stop offset="0%" stop-color="#43E695"/>
      <stop offset="100%" stop-color="#3BB2B8"/>
    </radialGradient>
    <path id="b" d="M681 205.677c0-2.37.442-4.615 1.326-6.737.885-2.122 2.113-3.973 3.685-5.552a17.023 17.023 0 0 1 5.527-3.702c2.112-.888 4.348-1.332 6.706-1.332 2.358 0 4.593.444 6.706 1.332a17.023 17.023 0 0 1 5.527 3.702c1.572 1.58 2.8 3.43 3.684 5.552.884 2.122 1.327 4.368 1.327 6.737 0 2.369-.443 4.614-1.327 6.737-.884 2.122-2.112 3.973-3.684 5.552a17.023 17.023 0 0 1-5.527 3.701c-2.113.889-4.348 1.333-6.706 1.333-2.358 0-4.594-.444-6.706-1.333a17.023 17.023 0 0 1-5.527-3.701c-1.572-1.58-2.8-3.43-3.685-5.552-.884-2.123-1.326-4.368-1.326-6.737zm63.375-61.742v42.79c0 9.377 4.52 14.066 13.559 14.066 9.04 0 13.56-4.689 13.56-14.066v-42.79h26.675v47.972c0 10.266-3.365 17.965-10.095 23.098-6.73 5.133-16.777 7.699-30.14 7.699s-23.41-2.566-30.14-7.7c-6.73-5.132-10.096-12.831-10.096-23.097v-47.972h26.677zM828.235 97v74.327l28.003-27.392h36.551l-37.877 35.09L895 219.892h-37.435l-29.33-30.945v30.945H801.56V97h26.677z"/>
    <filter id="d" width="131%" height="135.8%" x="-15.5%" y="-17.9%" filterUnits="objectBoundingBox">
      <feGaussianBlur in="SourceGraphic" stdDeviation="9"/>
    </filter>
  </defs>
  <g fill="none" fill-rule="evenodd">
    <path fill="#9E8277" d="M814.818 301.634l-.856 301.79-262.617-151.633L552.2 150l262.618 151.634"/>
    <path fill="#9C796A" d="M293.304 301.625L554.193 150l-.855 301.791-260.889 151.624.855-301.79"/>
    <path fill="url(#a)" d="M542.485 296.366c2.987 17.243 5.382 30.729 7.186 40.456 2.165-10.372 4.562-23.743 7.193-40.114 43.576-1.286 81.878-23.568 105.126-57.072l78.358 135.63a4.5 4.5 0 0 1-1.646 6.147l-.002.001-38.172 22.02a4.5 4.5 0 0 1-6.145-1.647l-38.747-67.065V450h-58.002V306.6c-10.857 47.374-19.904 75.528-27.142 84.464-10.856 13.403-17.898 27.503-41.27 0-15.581-18.335-24.876-45.462-27.886-81.38V450h-58.002V336.503l-37.717 65.284a4.5 4.5 0 0 1-6.145 1.647l-38.172-22.02h-.002a4.5 4.5 0 0 1-1.646-6.148L440.688 235c21.776 34.371 58.93 58.047 101.797 61.366z"/>
    <circle cx="552" cy="164" r="97" fill="#69C0BB"/>
    <g fill-rule="nonzero">
      <use fill="#000" xlink:href="#b"/>
      <use fill="url(#c)" xlink:href="#b"/>
    </g>
    <path fill="#C5A597" d="M556.316 453.248l260.888-151.625-.855 301.792-260.89 151.623.857-301.79"/>
    <path fill="#B39589" d="M556.316 453.248l-.856 301.79-262.618-151.633.856-301.791 262.618 151.634"/>
    <path fill="#9C796A" d="M272.749 624.212L151 694.727l.401-140.924 121.247-70.225.001-.578.5.288.497-.288-.002.572 122.06 70.235-.4 140.924-122.555-70.519z"/>
    <path fill="#B39589" d="M274.456 624.807l122.245-70.803-.4 140.925-122.246 70.802.401-140.924"/>
    <path fill="#A68171" d="M274.456 624.807l-.401 140.924L151 694.924 151.401 554l123.055 70.807"/>
    <g fill="#685235">
      <path d="M707.718 653.903c-.337 0-.57-.267-.571-.724L707 601.087c-.002-.653.459-1.446 1.027-1.776l45.238-26.17a.945.945 0 0 1 .465-.141c.336 0 .568.264.569.726l.148 52.091c.001.646-.46 1.446-1.027 1.775l-45.24 26.17a.934.934 0 0 1-.462.141m44.524-77.8l-43.185 24.981.142 49.72 43.184-24.981-.14-49.72"/>
      <path d="M731.39 601.09c-.275 0-.465-.217-.465-.589l-.023-7.6c0-.533.375-1.177.837-1.445a.77.77 0 0 1 .376-.115c.273 0 .459.216.46.594l.022 7.598c0 .526-.368 1.174-.832 1.442a.759.759 0 0 1-.375.115M717.945 614.367c-.276 0-.466-.218-.466-.596l-.03-10.235c0-.532.375-1.177.837-1.443a.766.766 0 0 1 .38-.117c.273 0 .46.214.462.589l.029 10.236c.001.532-.374 1.183-.837 1.452a.765.765 0 0 1-.375.114M744.824 598.818c-.275 0-.465-.218-.466-.596l-.03-10.234c0-.534.375-1.178.838-1.445a.765.765 0 0 1 .379-.116c.273 0 .46.214.462.59l.029 10.234c.001.533-.373 1.185-.836 1.452a.754.754 0 0 1-.376.115M731.475 634.32c-.27 0-.456-.21-.456-.578l-.04-14.362-11.667 6.748-.181.11-.176.098-.217.132c-.076.046-.156.096-.237.142-.13.076-.263.144-.392.18a.532.532 0 0 1-.128.015c-.214 0-.374-.146-.442-.406a2.003 2.003 0 0 1-.032-.364c-.014-2.753.7-6.062 2-9.311a34.63 34.63 0 0 1 5.117-8.73c2.155-2.67 4.621-4.85 7.125-6.299 2.243-1.297 4.461-1.975 6.45-1.975.178 0 .354.006.527.017 2.14.129 3.952 1.065 5.236 2.706.738.939 1.291 2.098 1.647 3.436.182.671.313 1.392.39 2.13.006.096.018.196.03.302.052.41.115.923.042 1.449-.09.65-.368 1.116-.818 1.377-.314.168-.592.335-.87.487l-11.733 6.79.038 13.416 3.615-2.091a.774.774 0 0 1 .381-.117c.272 0 .46.211.46.576.002.525-.373 1.163-.836 1.43l-4.448 2.573a.782.782 0 0 1-.385.119m6.01-32.454c-1.72 0-3.667.568-5.73 1.761-6.67 3.858-12.106 12.845-12.523 20.62l25.115-14.529c-.317-5.02-3.022-7.852-6.862-7.852"/>
      <g>
        <path d="M765.991 614.363a.406.406 0 0 1-.208-.053c-.316-.18-.317-.77-.004-1.314l7.57-13.143c.154-.26.357-.477.573-.602a.716.716 0 0 1 .358-.11c.076 0 .147.018.21.051.316.18.318.77.004 1.315l-7.576 13.147c-.154.266-.363.48-.566.598a.733.733 0 0 1-.36.11"/>
        <path d="M759.718 623.903c-.337 0-.57-.267-.571-.724L759 571.088c-.002-.654.459-1.447 1.027-1.776l45.238-26.17a.95.95 0 0 1 .466-.142c.335 0 .567.264.568.726l.147 52.091c.002.647-.459 1.447-1.026 1.775l-45.24 26.17a.944.944 0 0 1-.462.141m44.524-77.799l-43.185 24.981.14 49.719 43.186-24.981-.14-49.719"/>
        <path d="M773.668 609.524c-.265 0-.447-.213-.448-.576l-.01-3.324c-.001-.533.182-1.159.51-1.717l11.934-20.72c.237-.412.562-.737.888-.924.2-.116.402-.18.582-.18a.61.61 0 0 1 .307.076l10.955 6.255-.007-2.508-7.724-8.594c-.532-.594-.437-1.866.227-3.019l7.323-12.71.014-3.708-3.14 1.818-7.384 12.773c-.383.664-.889 1.183-1.398 1.477-.3.175-.605.27-.884.27a1.08 1.08 0 0 1-.223-.021l-11.302-2.312-2.227 1.274 10.954 6.255c.236.135.366.422.367.813.002.383-.126.821-.36 1.226l-11.943 20.723c-.325.573-.768 1.036-1.231 1.304l-2.893 1.674a.732.732 0 0 1-.362.11c-.262 0-.443-.208-.444-.57 0-.511.356-1.137.8-1.394l2.912-1.685 11.763-20.379-12.136-6.93c-.224-.12-.287-.468-.17-.87.122-.404.399-.778.714-.96l4.034-2.334c.355-.205.697-.31 1.01-.31.087 0 .17.007.25.023l11.414 2.333 7.804-13.542c.141-.246.337-.46.548-.58l4.361-2.524a.704.704 0 0 1 .347-.108c.073 0 .142.018.203.053.148.077.23.259.23.492l.014 5.03c.001.234-.079.508-.226.764l-7.803 13.543 7.785 8.629c.254.279.385.708.386 1.22l.014 4.652c0 .363-.184.79-.473 1.099a1.314 1.314 0 0 1-.29.234.716.716 0 0 1-.352.107.399.399 0 0 1-.204-.052l-12.137-6.929-11.701 20.315-.016 3.43c.002.512-.361 1.142-.805 1.399a.73.73 0 0 1-.357.109"/>
      </g>
    </g>
    <g>
      <path fill="#000" fill-opacity=".225" d="M88.145 209L1 158.503 1.284 58l87.145 50.497L175 58.003l-.284 100.503L88.145 209z" filter="url(#d)" transform="translate(604 594)"/>
      <g fill="#9E8277">
        <path d="M778.079 644.433l-.286 100.376-87.539-50.434.285-100.375 87.54 50.433"/>
        <path d="M604.285 644.43L691.248 594l-.285 100.376L604 744.805l.285-100.375"/>
      </g>
      <path fill="#C5A597" d="M691.825 695.433l86.962-50.43-.285 100.376-86.963 50.43.286-100.376"/>
      <path fill="#B39589" d="M691.825 695.433l-.286 100.376L604 745.375 604.285 645l87.54 50.433"/>
    </g>
  </g>
</svg>
