<svg version="1" xmlns="http://www.w3.org/2000/svg" width="693.333" height="693.333" viewBox="0 0 520.000000 520.000000"><path d="M248.6 57c-43.3 6.9-76.2 37.6-86.2 80.6-2.7 11.3-2.5 32.8.4 44.4 17.5 70.9 97.8 102.4 157.8 61.9 19.9-13.4 35.5-35.6 41.9-59.4.9-3.3 2.1-11.4 2.7-18.1 1-10.5.9-13.6-.6-22.9-6.7-41.5-36.2-73.8-76.5-84.1-10.8-2.8-29.6-3.9-39.5-2.4z"/><path d="M142.7 238.1C132.7 253.9 58 385.5 58 387.3c0 2.1 2.8 4.1 21.8 15.1 12.1 6.9 22.6 12.6 23.5 12.6 2.2 0 2.9-1.2 24.3-38.4l18.9-32.9.3 60.1.2 60.2h62l.1-72.3c.1-47 .5-69.8 1-65.3 5 38.6 20.3 71.6 40 86.1 11.9 8.8 17.8 7.2 29.3-7.9 9.5-12.3 15.8-29.5 26.5-71.6l4.9-19.5.1 75.2.1 75.3h62l.2-60.9.3-60.9 20.4 35.4c11.2 19.4 21 35.9 21.7 36.5.8.6 2.3.9 3.3.6 3.1-.8 42.5-23.7 43.9-25.5.7-.9 1-2.3.7-3.2-.3-.8-19.3-34-42.2-73.6l-41.6-72.2-5.7 7.2c-23.7 29.7-57.3 48.1-96 52.7-5.2.6-9.7 1.3-9.9 1.5-.3.3-2.8 14-6.7 36.7-.4 2.1-1 3.5-1.4 3-.4-.4-2.3-9.7-4.1-20.7-1.9-10.9-3.8-20-4.4-20.1-.5-.1-5.9-1-12-2-33.9-5.3-67.3-25.5-88.1-53.3-3.2-4.2-6.1-8.1-6.5-8.6-.4-.4-1.4.2-2.2 1.5z"/></svg>